<svg xmlns="http://www.w3.org/2000/svg" version="1.0" width="225.000000" height="225.000000" preserveAspectRatio="xMidYMid meet"><rect id="backgroundrect" width="100%" height="100%" x="0" y="0" fill="none" stroke="none"/>


<g class="currentLayer" style=""><title>Layer 1</title><g transform="translate(0,225) scale(0.10000000149011612,-0.10000000149011612) " fill="#ffffff" stroke="none" id="svg_1" class="" fill-opacity="1">
<path d="M1414.1496109962463,1632.3227844238281 c-77,-22 -140,-70 -176,-135 c-26,-48 -30,-65 -30,-135 c0,-153 56,-217 280,-325 c115,-56 148,-76 160,-99 c22,-44 18,-77 -12,-111 c-68,-75 -215,-55 -294,39 l-34,41 l-82,-47 c-46,-26 -83,-50 -83,-54 c0,-17 83,-111 119,-134 c128,-85 327,-98 462,-29 c136,68 187,242 114,390 c-35,71 -94,115 -256,192 c-69,32 -135,70 -147,82 c-26,28 -29,85 -7,117 c40,57 142,50 193,-13 l30,-36 l81,52 l81,52 l-19,26 c-34,48 -85,91 -133,112 c-63,27 -177,34 -247,15 z" id="svg_2" fill="#ffffff" fill-opacity="1"/>
<path d="M818.1496109962463,1625.3227844238281 c-3,-7 -6,-188 -7,-401 l-3,-389 l-28,-24 c-58,-50 -156,-25 -196,50 c-8,14 -17,26 -21,26 c-3,0 -43,-23 -87,-50 l-82,-50 l20,-35 c60,-101 188,-162 322,-153 c129,9 212,61 259,163 c23,49 23,56 26,463 l3,412 l-101,0 c-71,0 -102,-4 -105,-12 z" id="svg_3" fill="#ffffff" fill-opacity="1"/>
</g></g></svg>