<?xml version="1.0" standalone="no"?>
<!DOCTYPE svg PUBLIC "-//W3C//DTD SVG 20010904//EN"
 "http://www.w3.org/TR/2001/REC-SVG-20010904/DTD/svg10.dtd">
<svg version="1.0" xmlns="http://www.w3.org/2000/svg"
 width="840.000000pt" height="1041.000000pt" viewBox="0 0 840.000000 1041.000000"
 preserveAspectRatio="xMidYMid meet">
<metadata>
Created by potrace 1.16, written by Peter Selinger 2001-2019
</metadata>
<g transform="translate(0.000000,1041.000000) scale(0.100000,-0.100000)"
fill="#000000" stroke="none">
<path d="M2393 10095 c-433 -79 -768 -421 -833 -850 -7 -48 -10 -1304 -8
-4080 l3 -4010 22 -78 c54 -189 138 -333 272 -468 158 -157 330 -246 548 -284
78 -13 306 -15 1844 -13 l1754 3 85 24 c102 28 244 93 331 152 82 55 203 176
258 258 63 92 127 234 153 337 l23 89 0 4035 0 4035 -23 89 c-26 103 -90 245
-153 337 -55 82 -176 203 -258 258 -87 59 -229 124 -331 152 l-85 24 -1765 2
c-1418 1 -1779 -1 -1837 -12z m3652 -264 c81 -27 172 -71 233 -113 107 -73
214 -210 266 -337 60 -148 56 158 56 -4171 0 -3583 -2 -3968 -16 -4038 -55
-269 -245 -480 -518 -575 l-91 -32 -1775 0 -1775 0 -95 33 c-264 92 -447 290
-510 552 -20 85 -20 99 -20 4060 0 3961 0 3975 20 4060 61 252 240 453 482
541 44 16 103 33 131 38 29 5 837 8 1797 7 l1745 -1 70 -24z"/>
<path d="M5834 9710 c-79 -32 -85 -164 -9 -198 60 -28 121 -8 150 48 19 37 19
54 -2 97 -24 51 -86 75 -139 53z"/>
<path d="M3762 9674 c-32 -22 -44 -58 -31 -91 20 -54 6 -52 540 -53 l496 0 21
23 c32 34 30 89 -4 116 -26 21 -36 21 -513 21 -430 0 -489 -2 -509 -16z m996
-36 c21 -21 14 -57 -10 -63 -13 -3 -237 -4 -498 -3 l-475 3 -3 23 c-8 53 -17
52 497 52 358 0 480 -3 489 -12z"/>
<path d="M1926 9208 c-14 -20 -16 -411 -16 -3950 0 -3915 0 -3928 20 -3948 20
-20 33 -20 2270 -20 2237 0 2250 0 2270 20 20 20 20 33 20 3953 0 3798 -1
3934 -18 3950 -17 16 -189 17 -2275 17 l-2256 0 -15 -22z m4434 -3948 l0
-3850 -2160 0 -2160 0 0 3850 0 3850 2160 0 2160 0 0 -3850z"/>
<path d="M3741 1146 c-18 -6 -51 -27 -73 -45 -140 -118 -78 -341 105 -381 35
-8 183 -10 462 -8 398 3 411 4 450 25 172 92 166 324 -10 404 -37 17 -73 19
-470 18 -311 0 -439 -4 -464 -13z m882 -119 c41 -18 57 -37 64 -81 5 -31 1
-40 -30 -71 l-35 -35 -414 0 c-309 0 -419 3 -438 13 -14 7 -33 29 -43 49 -16
33 -16 40 -4 70 28 66 35 68 475 68 307 0 400 -3 425 -13z"/>
<path d="M2607 1054 c-4 -4 -7 -50 -7 -101 0 -85 2 -94 18 -91 14 3 17 16 20
81 l3 77 144 0 145 0 0 -80 c0 -65 3 -80 15 -80 13 0 15 15 13 98 l-3 97 -171
3 c-93 1 -173 -1 -177 -4z"/>
<path d="M5538 1014 l-21 -11 21 -12 c11 -6 59 -11 105 -11 92 0 117 -13 117
-61 0 -51 -34 -69 -129 -69 -56 0 -71 -3 -71 -15 0 -23 167 -21 196 3 51 41
57 97 15 144 -28 32 -33 33 -121 38 -58 3 -99 1 -112 -6z"/>
</g>
</svg>
