<svg xmlns="http://www.w3.org/2000/svg" version="1.0" width="225.000000" height="225.000000" preserveAspectRatio="xMidYMid meet"><rect id="backgroundrect" width="100%" height="100%" x="0" y="0" fill="none" stroke="none"/>


<g class="currentLayer" style=""><title>Layer 1</title><g transform="translate(0,225) scale(0.10000000149011612,-0.10000000149011612) " fill="#ffffff" stroke="none" id="svg_1" class="" fill-opacity="1">
<path d="M940 2235 c-224 -37 -440 -149 -579 -300 -251 -276 -281 -748 -69 -1125 17 -30 68 -113 114 -183 150 -228 174 -294 174 -472 0 -80 4 -117 14 -131 14 -18 32 -19 410 -22 l396 -3 25 25 c28 28 32 63 11 92 -14 18 -33 19 -361 24 l-348 5 -4 75 c-9 157 -54 267 -203 495 -110 167 -149 243 -183 350 -145 461 54 859 500 999 323 101 617 17 757 -218 20 -33 66 -136 103 -230 56 -145 80 -190 151 -295 82 -121 112 -175 112 -205 0 -9 -24 -24 -60 -37 -34 -12 -65 -30 -71 -40 -19 -37 -21 -103 -4 -149 40 -108 41 -115 12 -150 -24 -28 -27 -40 -27 -110 0 -126 -23 -143 -245 -185 -51 -9 -111 -28 -139 -43 -60 -33 -106 -99 -106 -152 0 -82 97 -100 133 -26 24 52 55 67 189 92 228 44 295 103 313 279 4 39 16 86 26 105 25 46 24 115 -3 186 -14 37 -18 59 -11 61 5 2 30 16 55 32 108 68 104 185 -13 356 -114 168 -126 190 -173 315 -83 221 -130 304 -221 396 -65 66 -96 89 -165 122 -47 22 -116 48 -153 57 -95 23 -254 27 -357 10z" id="svg_2" fill="#ffffff" fill-opacity="1"/>
<path d="M1115 1983 c-44 -22 -124 -102 -146 -145 -23 -45 -24 -106 -4 -155 l16 -37 -118 -118 c-72 -73 -124 -117 -133 -114 -98 27 -106 28 -149 16 -56 -15 -165 -116 -182 -168 -15 -47 -13 -115 5 -149 22 -41 286 -300 319 -313 36 -13 108 -13 142 0 15 6 53 36 86 67 73 69 98 134 79 205 -7 24 -16 48 -21 54 -5 6 27 45 86 104 81 81 95 99 95 127 0 40 -30 73 -66 73 -20 0 -51 -23 -123 -95 l-97 -95 -32 33 -32 33 120 119 119 119 86 -83 c47 -45 101 -89 120 -97 76 -32 152 -11 229 64 80 78 104 158 71 238 -20 48 -257 288 -310 314 -49 24 -118 25 -160 3z m221 -247 c68 -69 124 -132 124 -140 0 -21 -66 -93 -92 -102 -17 -5 -45 18 -149 122 -71 71 -129 135 -129 143 0 22 81 101 103 101 11 0 72 -53 143 -124z m-563 -564 c83 -84 117 -126 117 -143 0 -29 -66 -99 -94 -99 -27 0 -266 238 -266 264 0 11 17 37 37 58 59 61 71 56 206 -80z" id="svg_3" fill="#ffffff" fill-opacity="1"/>
</g></g></svg>