<?xml version="1.0" standalone="no"?>
<!DOCTYPE svg PUBLIC "-//W3C//DTD SVG 20010904//EN"
 "http://www.w3.org/TR/2001/REC-SVG-20010904/DTD/svg10.dtd">
<svg version="1.0" xmlns="http://www.w3.org/2000/svg"
 width="225.000000pt" height="225.000000pt" viewBox="0 0 225.000000 225.000000"
 preserveAspectRatio="xMidYMid meet">
<metadata>
Created by potrace 1.16, written by Peter Selinger 2001-2019
</metadata>
<g transform="translate(0.000000,225.000000) scale(0.100000,-0.100000)"
fill="#000000" stroke="none">
<path d="M1199 2125 c-71 -14 -168 -59 -216 -99 -29 -24 -31 -25 -74 -9 -31
10 -70 14 -134 11 -75 -3 -101 -9 -158 -35 -124 -59 -212 -172 -240 -313 l-13
-63 -48 -15 c-66 -21 -147 -97 -177 -164 -16 -39 -23 -72 -23 -123 0 -85 24
-143 83 -208 59 -64 123 -89 244 -95 l97 -5 0 -123 0 -124 -58 0 c-56 0 -58 1
-76 35 -75 139 -290 83 -290 -75 0 -158 215 -214 290 -75 l19 35 90 0 c58 0
95 4 103 12 8 8 12 59 12 165 l0 153 90 0 90 0 0 -149 0 -149 -60 -77 -59 -78
-60 -1 c-73 -1 -106 -22 -140 -89 -84 -169 171 -306 269 -145 30 49 34 88 15
136 l-17 41 71 93 71 92 0 163 0 163 90 0 90 0 0 -295 0 -295 -23 -9 c-30 -12
-75 -65 -83 -97 -10 -38 2 -104 23 -133 29 -40 106 -75 147 -67 84 16 140 87
133 168 -5 56 -27 93 -73 120 l-34 20 0 294 0 294 90 0 90 0 0 -164 0 -163 70
-92 71 -91 -17 -48 c-17 -47 -17 -52 0 -95 54 -141 238 -143 291 -3 41 106
-47 214 -165 204 -38 -3 -40 -1 -100 76 l-60 78 0 149 0 149 90 0 90 0 0 -153
c0 -106 4 -157 12 -165 8 -8 45 -12 103 -12 l90 0 19 -35 c75 -139 290 -83
290 75 0 158 -215 214 -290 75 -18 -34 -20 -35 -76 -35 l-58 0 0 124 0 123 98
5 c112 5 167 25 230 83 93 83 123 226 72 343 -41 94 -164 182 -255 182 -20 0
-24 7 -29 48 -44 309 -330 519 -627 457z m206 -90 c186 -49 319 -207 332 -393
3 -44 9 -86 14 -93 5 -8 38 -16 84 -20 62 -5 84 -11 118 -35 128 -91 123 -283
-11 -361 l-47 -28 -761 -3 -761 -2 -54 28 c-68 35 -108 95 -115 173 -11 108
72 210 184 228 29 4 56 11 59 15 4 4 10 42 14 85 11 131 82 232 201 286 68 31
168 35 238 11 64 -22 77 -20 123 19 104 89 251 124 382 90z"/>
</g>
</svg>
