<svg xmlns="http://www.w3.org/2000/svg" version="1.0" width="716.000000pt" height="980.000000pt" viewBox="0 0 716.000000 980.000000" preserveAspectRatio="xMidYMid meet">
<metadata fill="#ffffff">
Created by potrace 1.16, written by Peter Selinger 2001-2019
</metadata>
<g transform="translate(0.000000,980.000000) scale(0.100000,-0.100000)" fill="#ffffff" stroke="none">
<path d="M796 9011 l-789 -789 5 -3770 4 -3770 53 -108 c29 -60 73 -138 99 -174 97 -136 251 -262 397 -323 138 -59 125 -58 765 -67 770 -11 3742 -11 4510 0 666 10 647 8 805 85 188 93 338 246 445 457 l60 116 0 4232 0 4232 -60 116 c-131 257 -316 423 -565 508 l-80 27 -480 8 c-264 4 -1358 8 -2430 8 l-1950 1 -789 -789z m5414 370 c185 -7 209 -10 250 -31 105 -53 208 -156 260 -259 17 -35 24 -73 33 -205 15 -226 15 -7731 0 -7968 -11 -159 -13 -170 -44 -228 -40 -76 -165 -197 -242 -235 l-58 -28 -397 -8 c-516 -10 -4338 -10 -4854 0 l-397 8 -58 29 c-77 37 -224 182 -254 249 -16 36 -23 81 -30 179 -10 162 -18 1605 -24 4844 l-5 2482 600 0 600 0 0 590 0 590 2208 -1 c1214 0 2299 -4 2412 -8z" fill="#ffffff"/>
<path d="M4042 8691 c-40 -10 -112 -38 -160 -61 -119 -59 -250 -188 -310 -306 -68 -133 -76 -176 -76 -434 0 -317 19 -409 113 -552 115 -173 269 -261 507 -289 141 -17 329 7 527 67 15 5 17 20 17 139 0 74 -3 136 -8 139 -4 2 -61 -9 -127 -25 -340 -84 -543 -28 -639 175 -35 74 -46 150 -46 321 0 187 9 238 60 341 51 104 122 172 205 199 94 29 242 18 375 -28 58 -21 111 -37 117 -37 11 0 60 104 88 188 20 62 15 72 -54 106 -135 67 -430 96 -589 57z" fill="#ffffff"/>
<path d="M4822 8671 c-11 -6 29 -132 183 -582 107 -316 231 -677 274 -804 l79 -230 168 3 c93 2 177 5 186 8 9 3 24 26 33 52 130 369 524 1546 520 1551 -4 3 -80 7 -170 9 l-163 3 -21 -63 c-110 -338 -341 -1103 -341 -1132 0 -6 -5 -29 -11 -51 -10 -36 -12 -38 -24 -21 -8 10 -17 37 -20 59 -15 87 -137 496 -291 975 l-75 232 -157 0 c-86 0 -163 -4 -170 -9z" fill="#ffffff"/>
<path d="M1440 5930 c-212 -4 -345 -11 -362 -18 -39 -16 -52 -73 -52 -222 1 -147 9 -175 56 -184 18 -3 605 -11 1303 -18 980 -9 1549 -9 2490 0 671 6 1236 15 1255 20 32 7 36 13 48 57 16 59 10 251 -9 303 -7 20 -22 38 -38 44 -15 6 -198 14 -436 19 -466 9 -3746 9 -4255 -1z" fill="#ffffff"/>
<path d="M1390 4810 c-384 -9 -365 3 -365 -231 0 -153 8 -181 59 -199 19 -7 177 -15 421 -20 497 -11 3684 -12 4200 -1 431 9 457 13 472 68 10 36 10 279 0 315 -15 56 -38 60 -411 69 -394 9 -3951 9 -4376 -1z" fill="#ffffff"/>
<path d="M1293 3690 c-276 -9 -268 -2 -268 -232 0 -122 2 -139 21 -164 11 -15 34 -32 50 -37 16 -4 349 -13 739 -19 800 -11 4017 -3 4189 11 98 8 111 11 135 35 26 26 26 28 26 169 0 78 -3 154 -8 169 -15 55 -35 60 -305 69 -286 9 -4278 9 -4579 -1z" fill="#ffffff"/>
<path d="M1342 2551 c-259 -5 -285 -8 -297 -24 -30 -42 -30 -280 0 -353 8 -21 22 -34 41 -39 39 -9 3602 -26 4209 -19 692 7 853 21 890 77 13 20 13 44 4 161 -13 177 -15 182 -76 190 -63 9 -4405 15 -4771 7z" fill="#ffffff"/>
<path d="M2080 1440 c-520 -4 -966 -11 -992 -15 -45 -7 -48 -10 -55 -44 -13 -58 -7 -271 8 -316 13 -35 19 -41 59 -49 56 -13 4883 -15 4983 -3 67 9 69 10 84 45 17 41 24 258 10 323 -7 32 -12 37 -45 43 -42 8 -2128 26 -2717 24 -214 -1 -815 -5 -1335 -8z" fill="#ffffff"/>
</g>
</svg>